<?xml version="1.0" encoding="utf-8"?>
<!-- Generator: Adobe Illustrator 21.0.2, SVG Export Plug-In . SVG Version: 6.00 Build 0)  -->
<svg version="1.1" id="Layer_1" xmlns="http://www.w3.org/2000/svg" xmlns:xlink="http://www.w3.org/1999/xlink" x="0px" y="0px"
	 viewBox="0 0 100 100" style="enable-background:new 0 0 100 100;" xml:space="preserve">
<path d="M27,87v6c0,1.1-0.9,2-2,2s-2-0.9-2-2v-6c0-1.1,0.9-2,2-2S27,85.9,27,87z M25,69c-1.1,0-2,0.9-2,2v6c0,1.1,0.9,2,2,2
	s2-0.9,2-2v-6C27,69.9,26.1,69,25,69z M25,53c-1.1,0-2,0.9-2,2v6c0,1.1,0.9,2,2,2s2-0.9,2-2v-6C27,53.9,26.1,53,25,53z M35,85
	c-1.1,0-2,0.9-2,2v6c0,1.1,0.9,2,2,2s2-0.9,2-2v-6C37,85.9,36.1,85,35,85z M35,69c-1.1,0-2,0.9-2,2v6c0,1.1,0.9,2,2,2s2-0.9,2-2v-6
	C37,69.9,36.1,69,35,69z M35,53c-1.1,0-2,0.9-2,2v6c0,1.1,0.9,2,2,2s2-0.9,2-2v-6C37,53.9,36.1,53,35,53z M45,85c-1.1,0-2,0.9-2,2v6
	c0,1.1,0.9,2,2,2s2-0.9,2-2v-6C47,85.9,46.1,85,45,85z M45,69c-1.1,0-2,0.9-2,2v6c0,1.1,0.9,2,2,2s2-0.9,2-2v-6
	C47,69.9,46.1,69,45,69z M45,53c-1.1,0-2,0.9-2,2v6c0,1.1,0.9,2,2,2s2-0.9,2-2v-6C47,53.9,46.1,53,45,53z M55,85c-1.1,0-2,0.9-2,2v6
	c0,1.1,0.9,2,2,2s2-0.9,2-2v-6C57,85.9,56.1,85,55,85z M55,69c-1.1,0-2,0.9-2,2v6c0,1.1,0.9,2,2,2s2-0.9,2-2v-6
	C57,69.9,56.1,69,55,69z M55,53c-1.1,0-2,0.9-2,2v6c0,1.1,0.9,2,2,2s2-0.9,2-2v-6C57,53.9,56.1,53,55,53z M65,85c-1.1,0-2,0.9-2,2v6
	c0,1.1,0.9,2,2,2s2-0.9,2-2v-6C67,85.9,66.1,85,65,85z M65,69c-1.1,0-2,0.9-2,2v6c0,1.1,0.9,2,2,2s2-0.9,2-2v-6
	C67,69.9,66.1,69,65,69z M65,53c-1.1,0-2,0.9-2,2v6c0,1.1,0.9,2,2,2s2-0.9,2-2v-6C67,53.9,66.1,53,65,53z M75,85c-1.1,0-2,0.9-2,2v6
	c0,1.1,0.9,2,2,2s2-0.9,2-2v-6C77,85.9,76.1,85,75,85z M75,69c-1.1,0-2,0.9-2,2v6c0,1.1,0.9,2,2,2s2-0.9,2-2v-6
	C77,69.9,76.1,69,75,69z M75,53c-1.1,0-2,0.9-2,2v6c0,1.1,0.9,2,2,2s2-0.9,2-2v-6C77,53.9,76.1,53,75,53z M83,35v10c0,1.1-0.9,2-2,2
	H19c-1.1,0-2-0.9-2-2V35c0-1.1,0.9-2,2-2h11.2c1-5.7,5.9-10,11.8-10h1V7c0-1.1,0.9-2,2-2h10c1.1,0,2,0.9,2,2v16h1
	c5.9,0,10.9,4.3,11.8,10H81C82.1,33,83,33.9,83,35z M47,23h6V9h-6V23z M34.3,33h31.5c-0.9-3.4-4-6-7.7-6h-3H45h-3
	C38.3,27,35.1,29.6,34.3,33z M79,37H68H32H21v6h58V37z"/>
</svg>
