<?xml version="1.0" encoding="utf-8"?>
<!-- Generator: Adobe Illustrator 23.0.1, SVG Export Plug-In . SVG Version: 6.00 Build 0)  -->
<svg version="1.1" id="Layer_1" xmlns="http://www.w3.org/2000/svg" xmlns:xlink="http://www.w3.org/1999/xlink" x="0px" y="0px"
	 viewBox="0 0 100 100" style="enable-background:new 0 0 100 100;" xml:space="preserve">
<path d="M89,43.3V23c0-3.3-2.7-6-6-6H17c-3.3,0-6,2.7-6,6v20.3c-3.4,0.9-6,4-6,7.7v8v14v8c0,1.1,0.9,2,2,2s2-0.9,2-2v-6h82v6
	c0,1.1,0.9,2,2,2s2-0.9,2-2v-8V59v-8C95,47.3,92.4,44.2,89,43.3z M15,23c0-1.1,0.9-2,2-2h66c1.1,0,2,0.9,2,2v20h-6V33
	c0-1.1-0.9-2-2-2H55c-1.1,0-2,0.9-2,2v10h-6V33c0-1.1-0.9-2-2-2H23c-1.1,0-2,0.9-2,2v10h-6V23z M75,43H57v-8h18V43z M43,43H25v-8h18
	V43z M9,51c0-2.2,1.8-4,4-4h10h22h10h22h10c2.2,0,4,1.8,4,4v6H9V51z M9,61h82v10H9V61z"/>
</svg>
