<?xml version="1.0" encoding="utf-8"?>
<!-- Generator: Adobe Illustrator 24.1.1, SVG Export Plug-In . SVG Version: 6.00 Build 0)  -->
<svg version="1.1" id="Capa_1" xmlns="http://www.w3.org/2000/svg" xmlns:xlink="http://www.w3.org/1999/xlink" x="0px" y="0px"
	 viewBox="0 0 100 125" style="enable-background:new 0 0 100 125;" xml:space="preserve">
<path d="M87.5,28.6h-25c-0.5,0-0.9,0.4-0.9,0.9v15.7H37.5c-0.5,0-0.9,0.4-0.9,0.9v13.6H12.5c-0.5,0-0.9,0.4-0.9,0.9v25
	c0,0.5,0.4,0.9,0.9,0.9h75c0.5,0,0.9-0.4,0.9-0.9V29.5C88.4,29,88,28.6,87.5,28.6z M86.6,84.7H13.4V61.5h24.1c0.5,0,0.9-0.4,0.9-0.9
	V47h24.1c0.5,0,0.9-0.4,0.9-0.9V30.4h23.2V84.7z"/>
</svg>
