<?xml version="1.0" encoding="utf-8"?>
<!-- Generator: Adobe Illustrator 23.0.1, SVG Export Plug-In . SVG Version: 6.00 Build 0)  -->
<svg version="1.1" id="Layer_1" xmlns="http://www.w3.org/2000/svg" xmlns:xlink="http://www.w3.org/1999/xlink" x="0px" y="0px"
	 viewBox="0 0 100 100" style="enable-background:new 0 0 100 100;" xml:space="preserve">
<path d="M88,5H12c-3.86,0-7,3.14-7,7v5v10v66c0,1.1,0.9,2,2,2s2-0.9,2-2V29h82v64c0,1.1,0.9,2,2,2s2-0.9,2-2V27V17v-5
	C95,8.14,91.86,5,88,5z M9,12c0-1.65,1.35-3,3-3h76c1.65,0,3,1.35,3,3v3H9V12z M9,19h82v6H9V19z M84.96,62.63
	c-0.03-0.15-0.08-0.3-0.14-0.44c0-0.01,0-0.01-0.01-0.02l-9.86-21.35C73.33,37.28,69.77,35,65.88,35H34.12
	c-3.89,0-7.45,2.28-9.08,5.81l-9.85,21.35c0,0.01,0,0.02-0.01,0.02c-0.06,0.14-0.11,0.29-0.14,0.44c-0.01,0.03-0.01,0.07-0.01,0.1
	C15.02,62.82,15,62.91,15,63v10v10v5c0,3.86,3.14,7,7,7s7-3.14,7-7v-3h42v3c0,3.86,3.14,7,7,7s7-3.14,7-7v-5V73V63
	c0-0.1-0.02-0.19-0.03-0.28C84.97,62.69,84.97,62.66,84.96,62.63z M60.53,81l3.6-6H81v6h-8H60.53z M44.13,81l-3.6-6h18.94l-3.6,6
	H44.13z M27,81h-8v-6h16.87l3.6,6H27z M81,71H19v-6h62V71z M28.67,42.49c0.98-2.12,3.12-3.49,5.45-3.49h31.76
	c2.33,0,4.47,1.37,5.45,3.49L79.87,61H20.13L28.67,42.49z M25,88c0,1.65-1.35,3-3,3s-3-1.35-3-3v-3h6V88z M81,88c0,1.65-1.35,3-3,3
	s-3-1.35-3-3v-3h6V88z"/>
</svg>
