<?xml version="1.0" encoding="utf-8"?>
<!-- Generator: Adobe Illustrator 23.0.1, SVG Export Plug-In . SVG Version: 6.00 Build 0)  -->
<svg version="1.1" id="Layer_1" xmlns="http://www.w3.org/2000/svg" xmlns:xlink="http://www.w3.org/1999/xlink" x="0px" y="0px"
	 viewBox="0 0 100 100" style="enable-background:new 0 0 100 100;" xml:space="preserve">
<path d="M93,74H76V8c0-1.1-0.9-2-2-2H26c-1.1,0-2,0.9-2,2v66H7c-1.1,0-2,0.9-2,2c0,1.1,0.9,2,2,2h18.5l31.6,15.8
	c0.3,0.1,0.6,0.2,0.9,0.2c0.4,0,0.7-0.1,1-0.3c0.6-0.4,1-1,1-1.7V78h33c1.1,0,2-0.9,2-2C95,74.9,94.1,74,93,74z M56,88.8l-28-14
	V11.2l28,14V88.8z M72,74H60V24c0-0.8-0.4-1.5-1.1-1.8L34.5,10H72V74z M46,50c0-1.1,0.9-2,2-2s2,0.9,2,2c0,1.1-0.9,2-2,2
	S46,51.1,46,50z"/>
</svg>
