<?xml version="1.0" encoding="utf-8"?>
<!-- Generator: Adobe Illustrator 24.1.1, SVG Export Plug-In . SVG Version: 6.00 Build 0)  -->
<svg version="1.1" id="Layer_1" xmlns="http://www.w3.org/2000/svg" xmlns:xlink="http://www.w3.org/1999/xlink" x="0px" y="0px"
	 viewBox="0 0 102.5 14.6" style="enable-background:new 0 0 102.5 14.6;" xml:space="preserve">
<style type="text/css">
	.st0{fill:#29D629;}
	.st1{font-family:'ArialMT';}
	.st2{font-size:8.8612px;}
</style>
<g>
	<path class="st0" d="M18.5,2.4L6.7,14.2c-0.6,0.6-1.5,0.6-2.1,0L0.4,10C0.1,9.7,0,9.4,0,9s0.1-0.7,0.4-1s0.7-0.4,1-0.4
		s0.7,0.1,1,0.4l2.5,2.5c0.4,0.4,1,0.4,1.4,0L16.4,0.4c0.5-0.5,1.5-0.5,2.1,0c0.3,0.3,0.4,0.6,0.4,1S18.7,2.1,18.5,2.4z"/>
	<text transform="matrix(1 0 0 1 26.6324 10.4469)" class="st0 st1 st2">Agente de confiaza</text>
</g>
</svg>
