<?xml version="1.0" encoding="utf-8"?>
<!-- Generator: Adobe Illustrator 24.1.1, SVG Export Plug-In . SVG Version: 6.00 Build 0)  -->
<svg version="1.1" id="Layer_1" xmlns="http://www.w3.org/2000/svg" xmlns:xlink="http://www.w3.org/1999/xlink" x="0px" y="0px"
	 viewBox="0 0 100 100" style="enable-background:new 0 0 100 100;" xml:space="preserve">
<style type="text/css">
	.st0{fill:#FFFFFF;}
</style>
<g>
	<path class="st0" d="M79,5H31c-3.3,0-6,2.7-6,6v4h-4c-3.3,0-6,2.7-6,6v68c0,3.3,2.7,6,6,6h48c3.3,0,6-2.7,6-6v-4h4c3.3,0,6-2.7,6-6
		V11C85,7.7,82.3,5,79,5z M71,89c0,1.1-0.9,2-2,2H21c-1.1,0-2-0.9-2-2V21c0-1.1,0.9-2,2-2h4v60c0,3.3,2.7,6,6,6h40V89z M81,79
		c0,1.1-0.9,2-2,2H31c-1.1,0-2-0.9-2-2V11c0-1.1,0.9-2,2-2h48c1.1,0,2,0.9,2,2V79z M55,73c0,1.1-0.9,2-2,2H37c-1.1,0-2-0.9-2-2
		s0.9-2,2-2h16C54.1,71,55,71.9,55,73z M55,63c0,1.1-0.9,2-2,2H37c-1.1,0-2-0.9-2-2s0.9-2,2-2h16C54.1,61,55,61.9,55,63z M73,61H63
		c-1.1,0-2,0.9-2,2v10c0,1.1,0.9,2,2,2h10c1.1,0,2-0.9,2-2V63C75,61.9,74.1,61,73,61z M71,71h-6v-6h6V71z M75,53c0,1.1-0.9,2-2,2H37
		c-1.1,0-2-0.9-2-2s0.9-2,2-2h36C74.1,51,75,51.9,75,53z M75,43c0,1.1-0.9,2-2,2H37c-1.1,0-2-0.9-2-2s0.9-2,2-2h36
		C74.1,41,75,41.9,75,43z M73,15H37c-1.1,0-2,0.9-2,2v16c0,1.1,0.9,2,2,2h36c1.1,0,2-0.9,2-2V17C75,15.9,74.1,15,73,15z M71,31H39
		V19h32V31z"/>
</g>
</svg>
