<?xml version="1.0" encoding="utf-8"?>
<!-- Generator: Adobe Illustrator 24.1.1, SVG Export Plug-In . SVG Version: 6.00 Build 0)  -->
<svg version="1.1" id="Layer_1" xmlns="http://www.w3.org/2000/svg" xmlns:xlink="http://www.w3.org/1999/xlink" x="0px" y="0px"
	 viewBox="0 0 100 100" style="enable-background:new 0 0 100 100;" xml:space="preserve">
<style type="text/css">
	.st0{fill:#FFAA00;}
</style>
<path class="st0" d="M83.1,62.7c-4.8-4.8-12.3-5.5-17.8-1.6c-2.5,1.8-5.2,3.6-7.1,4.9c-0.8,0.5-1.8,0.4-2.5-0.2L34.9,44.9
	c-0.7-0.7-0.8-1.7-0.2-2.5l4.9-7.1c3.8-5.6,3.1-13-1.7-17.8L35,14.6c-5.5-5.5-14.3-5.5-19.8,0L11,18.8c-9.5,9.5-1.4,32.5,18.4,52.3
	c14.2,14.2,30,22.4,41.4,22.4c4.5,0,8.3-1.3,11-4l4.2-4.2c2.6-2.6,4.1-6.2,4.1-9.9c0-3.7-1.5-7.2-4.1-9.9L83.1,62.7z M83.1,82.5
	l-4.2,4.2c-7.7,7.7-29-0.8-46.7-18.4c-17.6-17.6-26-39-18.4-46.7l4.2-4.2c1.9-2,4.5-2.9,7.1-2.9s5.1,1,7.1,2.9l2.8,2.9
	c3.4,3.4,3.9,8.8,1.2,12.7l-4.9,7.1c-1.6,2.4-1.3,5.6,0.7,7.6l20.8,20.8c2,2,5.2,2.3,7.6,0.7c1.9-1.3,4.5-3.1,7.1-4.9
	c4-2.7,9.3-2.2,12.7,1.2l2.8,2.8c1.9,1.9,2.9,4.4,2.9,7.1C86,78.1,85,80.6,83.1,82.5z"/>
</svg>
