<?xml version="1.0" encoding="utf-8"?>
<!-- Generator: Adobe Illustrator 24.1.1, SVG Export Plug-In . SVG Version: 6.00 Build 0)  -->
<svg version="1.1" id="Capa_1" xmlns="http://www.w3.org/2000/svg" xmlns:xlink="http://www.w3.org/1999/xlink" x="0px" y="0px"
	 viewBox="0 0 24 24" style="enable-background:new 0 0 24 24;" xml:space="preserve">
<style type="text/css">
	.st0{fill:#FFFFFF;}
</style>
<path class="st0" d="M19,17c-0.5-0.5-1-1-1.4-1.4c-0.4-0.4-0.6-0.7-0.6-0.7l-2.8-1.3C15.3,12.4,16,10.8,16,9c0-3.9-3.1-7-7-7
	S2,5.1,2,9s3.1,7,7,7c1.8,0,3.4-0.7,4.6-1.7l1.3,2.8c0,0,0.3,0.2,0.7,0.6C16,18,16.5,18.5,17,19c0.5,0.5,1,1,1.4,1.4
	c0.4,0.4,0.6,0.6,0.6,0.6l2.1-2.1c0,0-0.3-0.2-0.6-0.6C20,18,19.5,17.5,19,17z M9,14c-2.8,0-5-2.2-5-5s2.2-5,5-5s5,2.2,5,5
	S11.8,14,9,14z"/>
</svg>
