<?xml version="1.0" encoding="utf-8"?>
<!-- Generator: Adobe Illustrator 23.0.1, SVG Export Plug-In . SVG Version: 6.00 Build 0)  -->
<svg version="1.1" id="Layer_1" xmlns="http://www.w3.org/2000/svg" xmlns:xlink="http://www.w3.org/1999/xlink" x="0px" y="0px"
	 viewBox="0 0 100 100" style="enable-background:new 0 0 100 100;" xml:space="preserve">
<path d="M16.9,49H31v6H11.5L16.9,49z M83.1,49H69v6h19.5L83.1,49z M44,16h4v8.1l0.7-0.6c0.8-0.7,1.9-0.7,2.6,0l0.7,0.6V16h4
	c1.1,0,2-0.9,2-2c0-1.1-0.9-2-2-2h-4V9c0-1.1-0.9-2-2-2s-2,0.9-2,2v3h-4c-1.1,0-2,0.9-2,2C42,15.1,42.9,16,44,16z M91,59v34H69V59
	H91z M82,67c0-1.1-0.9-2-2-2s-2,0.9-2,2v6c0,1.1,0.9,2,2,2s2-0.9,2-2V67z M9,59h22v34H9V59z M18,73c0,1.1,0.9,2,2,2s2-0.9,2-2v-6
	c0-1.1-0.9-2-2-2s-2,0.9-2,2V73z M50,27.7l15,13.2V93h-6V72c0-5-4-9-9-9s-9,4-9,9v21h-6V40.9L50,27.7z M50,39c-5,0-9,4-9,9
	c0,5,4,9,9,9s9-4,9-9C59,43,55,39,50,39z M50,67c-2.8,0-5,2.2-5,5v3h10v-3C55,69.2,52.8,67,50,67z M45,93h10V79H45V93z M45,48
	c0,2.8,2.2,5,5,5s5-2.2,5-5s-2.2-5-5-5S45,45.2,45,48z"/>
</svg>
