<?xml version="1.0" encoding="utf-8"?>
<!-- Generator: Adobe Illustrator 23.0.1, SVG Export Plug-In . SVG Version: 6.00 Build 0)  -->
<svg version="1.1" id="Layer_1" xmlns="http://www.w3.org/2000/svg" xmlns:xlink="http://www.w3.org/1999/xlink" x="0px" y="0px"
	 viewBox="0 0 100 100" style="enable-background:new 0 0 100 100;" xml:space="preserve">
<path d="M91,86.9c0,2.2-1.8,4-4,4H13c-2.2,0-4-1.8-4-4c0-2.2,1.8-4,4-4h74C89.2,82.9,91,84.6,91,86.9z M87,28.9H13c-2.2,0-4,1.8-4,4
	v4h82v-4C91,30.6,89.2,28.9,87,28.9z M50,9.1L21.7,24.9h56.6L50,9.1z M59,44.9v-4H41v4c0,2.2,1.8,4,4,4h10
	C57.2,48.9,59,47.1,59,44.9z M13,48.9h12v-8H9v4C9,47.1,10.8,48.9,13,48.9z M75,48.9h12c2.2,0,4-1.8,4-4v-4H75V48.9z M54,78.9v-26
	h-8v26H54z M75,52.9v26h8v-26H75z M25,78.9v-26h-8v26H25z"/>
</svg>
