<?xml version="1.0" encoding="utf-8"?>
<!-- Generator: Adobe Illustrator 24.1.1, SVG Export Plug-In . SVG Version: 6.00 Build 0)  -->
<svg version="1.1" id="Capa_1" xmlns="http://www.w3.org/2000/svg" xmlns:xlink="http://www.w3.org/1999/xlink" x="0px" y="0px"
	 viewBox="0 0 24 30" style="enable-background:new 0 0 24 30;" xml:space="preserve">
<path d="M18.5,12.5H16V10c0-0.6-0.4-1-1-1h-3c-0.6,0-1,0.4-1,1v2.5H8.5c-0.6,0-1,0.4-1,1v3c0,0.6,0.4,1,1,1H11V20c0,0.6,0.4,1,1,1h3
	c0.6,0,1-0.4,1-1v-2.5h2.5c0.6,0,1-0.4,1-1v-3C19.5,12.9,19.1,12.5,18.5,12.5z M18.5,16.5H16c-0.6,0-1,0.4-1,1V20h-3v-2.5
	c0-0.6-0.4-1-1-1H8.5v-3H11c0.6,0,1-0.4,1-1V10h3v2.5c0,0.6,0.4,1,1,1h2.5V16.5z"/>
<path d="M21.5,6h-16C4.7,6,4,6.7,4,7.5V9H2V6.5C2,6.2,1.8,6,1.5,6S1,6.2,1,6.5v17C1,23.8,1.2,24,1.5,24S2,23.8,2,23.5V21h2v1.5
	C4,23.3,4.7,24,5.5,24h16c0.8,0,1.5-0.7,1.5-1.5v-15C23,6.7,22.3,6,21.5,6z M22,22.5c0,0.3-0.2,0.5-0.5,0.5h-16
	C5.2,23,5,22.8,5,22.5v-11C5,11.2,4.8,11,4.5,11S4,11.2,4,11.5V20H2V10h2.5C4.8,10,5,9.8,5,9.5v-2C5,7.2,5.2,7,5.5,7h16
	C21.8,7,22,7.2,22,7.5V22.5z"/>
</svg>
