<?xml version="1.0" encoding="utf-8"?>
<!-- Generator: Adobe Illustrator 24.1.1, SVG Export Plug-In . SVG Version: 6.00 Build 0)  -->
<svg version="1.1" id="Capa_1" xmlns="http://www.w3.org/2000/svg" xmlns:xlink="http://www.w3.org/1999/xlink" x="0px" y="0px"
	 viewBox="0 0 24 30" style="enable-background:new 0 0 24 30;" xml:space="preserve">
<g>
	<path d="M7,4c0-1.7,1.3-3,3-3s3,1.3,3,3v2h1V4c0-2.2-1.8-4-4-4S6,1.8,6,4v2h1V4z"/>
	<path d="M18,13c0,0,0-5.5,0-6c0-0.6-0.4-1-1-1h-3v1.5l0,0C14,7.8,13.8,8,13.5,8S13,7.8,13,7.5V6H7v1.5C7,7.8,6.8,8,6.5,8
		S6,7.8,6,7.5l0,0V6H3C2.4,6,2,6.4,2,7s0,13.4,0,14s0.4,1,1,1c0.5,0,5.2,0,5.2,0l0.9-9H18z"/>
	<path d="M22,14.5c0-0.3-0.3-0.5-0.5-0.5h-11c-0.3,0-0.5,0.2-0.5,0.5l-0.9,9C9,23.8,9.2,24,9.5,24h13c0.3,0,0.5-0.2,0.5-0.5L22,14.5
		z M16,20c-2.2,0-4-1.8-4-4c0-0.3,0.2-0.5,0.5-0.5S13,15.7,13,16c0,1.7,1.3,3,3,3s3-1.3,3-3c0-0.3,0.2-0.5,0.5-0.5S20,15.7,20,16
		C20,18.2,18.2,20,16,20z"/>
</g>
</svg>
