<?xml version="1.0" encoding="utf-8"?>
<!-- Generator: Adobe Illustrator 24.1.1, SVG Export Plug-In . SVG Version: 6.00 Build 0)  -->
<svg version="1.1" id="Capa_1" xmlns="http://www.w3.org/2000/svg" xmlns:xlink="http://www.w3.org/1999/xlink" x="0px" y="0px"
	 viewBox="0 0 100 125" style="enable-background:new 0 0 100 125;" xml:space="preserve">
<path d="M66.1,65.2c6.2-6.4,12.6-13.6,12.6-19.4c0-7-5.7-12.7-12.7-12.7c-2.6,0-5,0.8-7.1,2.2c-0.2-0.5-0.4-0.9-0.6-1.4l1.2-4.9
	c1.8-0.4,3.1-2,3.1-3.9v-1.7c0-0.6-0.4-1-1-1H38.3c-0.6,0-1,0.4-1,1v1.7c0,1.9,1.4,3.5,3.1,3.9l1.2,4.9c-0.2,0.4-0.4,0.8-0.6,1.3
	c-2.1-1.4-4.5-2.1-7-2.1c-7,0-12.7,5.7-12.7,12.7c0,5.8,6.4,14.1,12.5,19.6c1.4,2.3,3.2,4.4,5.5,6l-1.2,5.3H27.7c-0.6,0-1,0.4-1,1
	V83c0,0.6,0.4,1,1,1h0.7v5c0,0.6,0.4,1,1,1h2.8v11.5c0,0.6,0.4,1,1,1s1-0.4,1-1V90h32v11.5c0,0.6,0.4,1,1,1s1-0.4,1-1V90h2.2
	c0.6,0,1-0.4,1-1v-5h0.7c0.6,0,1-0.4,1-1v-5.3c0-0.6-0.4-1-1-1H61.7l-1.2-5.3C62.8,69.8,64.7,67.6,66.1,65.2z M35.5,64.2
	c0,0-0.1-0.1-0.1-0.1c-1.3-2.4-2.1-5.1-2.1-8c0-3,0.8-5.8,2.2-8.3h28.7c1.4,2.5,2.2,5.3,2.2,8.3c0,2.8-0.7,5.5-2,7.9
	c-0.1,0.1-0.1,0.1-0.2,0.2H35.5z M56.5,35.1c0.6,1.1,0.9,2.3,0.9,3.5c0,0.3,0,0.7-0.1,1.1H42.5c-0.1-0.4-0.1-0.7-0.1-1.1
	c0-1.2,0.3-2.4,0.9-3.5L56.5,35.1z M41.9,41.6h16c2,1.1,3.7,2.5,5,4.2h-26C38.3,44.2,40,42.7,41.9,41.6z M65.9,35.1
	c5.9,0,10.7,4.8,10.7,10.7c0,4.3-4.5,10-8.7,14.5c0.3-1.4,0.5-2.8,0.5-4.2c0-6.6-3.5-12.7-9.2-16c0.1-0.5,0.1-1,0.1-1.5
	c0-0.4,0-0.8-0.1-1.2C61.2,35.9,63.5,35.1,65.9,35.1z M41.3,27.1c-1.1,0-1.9-0.9-1.9-1.9v-0.7h21.2v0.7c0,1.1-0.9,1.9-1.9,1.9
	c-0.5,0-0.9,0.3-1,0.8l-1.3,5.2l-12.8,0l-1.3-5.2C42.1,27.4,41.7,27.1,41.3,27.1z M23.3,45.8c0-5.9,4.8-10.7,10.7-10.7
	c2.4,0,4.6,0.8,6.5,2.2c-0.1,0.4-0.1,0.9-0.1,1.3c0,0.5,0,1,0.1,1.5c-5.7,3.3-9.2,9.4-9.2,16c0,1.6,0.2,3.1,0.6,4.6
	C27.3,55.8,23.3,49.9,23.3,45.8z M36.8,66.2H63c-1.2,1.5-2.6,2.8-4.2,3.8H41C39.4,69,38,67.7,36.8,66.2z M69.4,88h-39v-4h39V88z
	 M71.1,82H28.7v-3.3h42.4V82z M40.2,76.6l1.1-4.6h17.3l1.1,4.6H40.2z"/>
</svg>
