<?xml version="1.0" encoding="utf-8"?>
<!-- Generator: Adobe Illustrator 24.1.1, SVG Export Plug-In . SVG Version: 6.00 Build 0)  -->
<svg version="1.1" id="Capa_1" xmlns="http://www.w3.org/2000/svg" xmlns:xlink="http://www.w3.org/1999/xlink" x="0px" y="0px"
	 viewBox="0 0 160 200" style="enable-background:new 0 0 160 200;" xml:space="preserve">
<g>
	<path d="M145.5,154.9h-15.4v7h15.4c1.9,0,3.5-1.6,3.5-3.5S147.4,154.9,145.5,154.9z"/>
	<path d="M51.2,125.6v29.4H26v-3.2c4.8-1,9-5.1,9-11.9c0-6.4-4.5-18.7-11.5-18.7S12,133.4,12,139.8c0,6.8,4.2,10.9,9,11.9v3.2h-6.5
		c-1.9,0-3.5,1.6-3.5,3.5s1.6,3.5,3.5,3.5h36.7v8.6c0,1.9,1.6,3.5,3.5,3.5s3.5-1.6,3.5-3.5v-44.9c-1.2,0.1-2.3,0.2-3.5,0.2
		S52.4,125.7,51.2,125.6z M17,139.8c0-5.8,4.2-13.7,6.5-13.7S30,134,30,139.8c0,3.6-1.8,5.8-4,6.7V144c0-1.4-1.1-2.5-2.5-2.5
		S21,142.6,21,144v2.5C18.8,145.6,17,143.4,17,139.8z"/>
	<path d="M120.1,139.9v15.1H88.9v-7.2c4.8-1,9-5.1,9-11.9c0-6.4-4.5-18.7-11.5-18.7s-11.5,12.3-11.5,18.7c0,6.8,4.2,10.9,9,11.9v7.2
		H61.2v7h58.9v1.3c0,1.9,1.6,3.5,3.5,3.5s3.5-1.6,3.5-3.5v-23.4c-1.2,0.1-2.3,0.2-3.5,0.2S121.3,140,120.1,139.9z M79.9,135.8
		c0-5.8,4.2-13.7,6.5-13.7s6.5,7.9,6.5,13.7c0,3.6-1.8,5.8-4,6.7V138c0-1.4-1.1-2.5-2.5-2.5s-2.5,1.1-2.5,2.5v4.5
		C81.7,141.6,79.9,139.4,79.9,135.8z"/>
	<path d="M54.7,122.2c17.5,0,35.2-12.9,35.2-37.6C89.9,61.2,73.8,24,54.7,24c-19.1,0-35.2,37.2-35.2,60.6
		C19.5,109.3,37.2,122.2,54.7,122.2z M54.7,31c13.1,0,28.2,32.4,28.2,53.6c0,19.8-12.9,29.4-25.7,30.5v-10.9v0v-12L69,80.6
		c1-1,1-2.6,0-3.5c-1-1-2.6-1-3.5,0l-8.3,8.2v-9v0V53.6c0-1.4-1.1-2.5-2.5-2.5s-2.5,1.1-2.5,2.5v16.7l-4.5-4.5c-1-1-2.6-1-3.5,0
		c-1,1-1,2.6,0,3.5l8,8v13.9v0v7.1L41,87.2c-1-1-2.6-1-3.5,0c-1,1-1,2.6,0,3.5l14.7,14.6v9.8c-12.8-1.1-25.7-10.8-25.7-30.5
		C26.5,63.4,41.6,31,54.7,31z"/>
	<path d="M123.6,136.6c12.6,0,25.4-9.3,25.4-27c0-16.5-11.6-42.9-25.4-42.9S98.3,93,98.3,109.5C98.3,127.3,111,136.6,123.6,136.6z
		 M123.6,73.7c7.7,0,18.4,20.8,18.4,35.9c0,12.5-7.8,18.8-15.9,19.9v-6.3v0V111l7.9-7.8c1-1,1-2.6,0-3.5c-1-1-2.6-1-3.5,0l-4.4,4.3
		v-9.6c0-1.4-1.1-2.5-2.5-2.5s-2.5,1.1-2.5,2.5v15.6v0v7.2l-4.9-4.9c-1-1-2.6-1-3.5,0c-1,1-1,2.6,0,3.5l8.4,8.4v5.2
		c-8.1-1.1-15.9-7.4-15.9-19.9C105.3,94.4,115.9,73.7,123.6,73.7z"/>
</g>
</svg>
