<?xml version="1.0" encoding="utf-8"?>
<!-- Generator: Adobe Illustrator 24.1.1, SVG Export Plug-In . SVG Version: 6.00 Build 0)  -->
<svg version="1.1" id="Capa_1" xmlns="http://www.w3.org/2000/svg" xmlns:xlink="http://www.w3.org/1999/xlink" x="0px" y="0px"
	 viewBox="0 0 6553.6 8192" style="enable-background:new 0 0 6553.6 8192;" xml:space="preserve">
<style type="text/css">
	.st0{fill-rule:evenodd;clip-rule:evenodd;}
	.st1{font-family:'Arial-BoldMT';}
	.st2{font-size:3.8701px;}
</style>
<g>
	<path class="st0" d="M1243.1,2739.7c505.4,650.9,954.4,1186.6,1183.5,1278.7c155.6,33.3,314.3,28.6,477.6-1.5l58.8,52.6l282.5-281
		l-47.2-55.7c32.5-164.9,37.9-332.8-4.6-505.4c-61.1-162.5-654-655.6-1270.2-1162.6c-96-18.6-157.1,65.8-129.3,141.6l887,820.5
		l-145.5,178.8l-854.5-857.6c-102.9-14.7-171.1,53.4-147.1,157.1l842.9,840.6l-129.3,144.7l-864.6-890.9
		C1292.6,2578,1223.7,2651.5,1243.1,2739.7z M1453.6,5704.2c-88.2,294.9,189.6,490.7,420.3,405.6L3425,4322.6l294.1-27.9
		c1037.2-1148.6,1530.2-1935.8,1322-2169.6L1453.6,5704.2z M3419.6,4481.3c445.8,539.5,902.5,1058.1,1372.3,1538.7
		c341.3,278.6,734.5-33.3,386.2-411c-432.7-461.3-902.5-875.4-1395.6-1261.6C3699,4465,3474.6,4350.4,3419.6,4481.3z"/>
</g>
<text transform="matrix(1 0 0 1 0 6565.2109)" class="st1 st2">Created by Trisula</text>
<text transform="matrix(1 0 0 1 0 6569.0801)" class="st1 st2">from the Noun Project</text>
</svg>
